<?xml version="1.0" encoding="iso-8859-1"?>
<!-- Generator: Adobe Illustrator 19.0.0, SVG Export Plug-In . SVG Version: 6.00 Build 0)  -->
<svg width="30px" version="1.1" id="Layer_1" xmlns="http://www.w3.org/2000/svg" xmlns:xlink="http://www.w3.org/1999/xlink" x="0px" y="0px"
	 viewBox="0 0 511.985 511.985" style="enable-background:new 0 0 511.985 511.985;" xml:space="preserve">
<path style="fill:#F6BB42;" d="M284.847,95.997c-16.453-37.671-54.029-63.998-97.778-63.998c-43.733,0-81.31,26.327-97.778,63.998
	l-8.875,10.663v31.999c0,58.913,47.749,106.669,106.653,106.669c58.92,0,106.669-47.756,106.669-106.669V106.66L284.847,95.997z"/>
<path style="fill:#FFCE54;" d="M293.738,106.66c0,58.913-47.749,106.669-106.669,106.669c-58.904,0-106.653-47.756-106.653-106.669
	C80.416,47.756,128.165,0,187.069,0C245.99,0,293.738,47.756,293.738,106.66z"/>
<rect x="219.073" y="189.332" width="21.343" height="35.999"/>
<path style="fill:#E8AA3D;" d="M187.069,63.998c-5.89,0-10.656,4.773-10.656,10.663v63.998c0,5.898,4.766,10.672,10.656,10.672
	c5.891,0,10.672-4.773,10.672-10.672V74.661C197.741,68.771,192.96,63.998,187.069,63.998z"/>
<path style="fill:#F5F7FA;" d="M420.562,294.429c0-13.281-9.453-24.046-22.828-24.046c-13.374,0-28.607,10.765-28.607,24.046
	v-11.812c0-13.28-13.594-24.054-26.953-24.054c-13.391,0-26.968,10.773-26.968,24.054v-17.929c0-13.133-13.437-23.797-26.593-24.039
	c-0.578-0.031-1.172-0.07-1.781-0.07c-13.359,0-26.812,10.773-26.812,24.055v-91.248c0-13.28-12.624-24.054-25.998-24.054
	c-13.375,0-25.593,10.773-25.593,24.054v183.683l-17.703-23.108c-9.359-12.203-26.905-14.578-39.202-5.281
	s-14.672,26.718-5.297,38.936l82.919,108.217l4.922,15.124c1.359,5.937,6.703,10.374,13.093,10.374h130.762
	c0,0,0.016-0.016,0.047-0.031c0.109,0,0.203,0.031,0.312,0.031c6.125,0,11.265-4.062,12.905-9.624
	c0.031-0.094,0.078-0.156,0.094-0.25C426.109,349.239,420.562,294.429,420.562,294.429z"/>
<path style="fill:#434A54;" d="M431.234,293.929c-0.266-19.219-14.875-34.21-33.5-34.21c-7.656,0-15.687,2.531-22.483,6.906
	c-6.483-10.938-19.202-18.727-33.077-18.727c-6.703,0-13.125,1.812-18.703,4.914c-2.031-4.82-5.28-9.266-9.64-13.039
	c-6.938-6.007-15.968-9.569-24.812-9.788l0,0c-0.609-0.031-1.344-0.07-2.188-0.07c-5.688,0-11.203,1.32-16.156,3.641v-60.171
	c0-18.819-16.78-34.726-36.654-34.726c-19.656,0-36.265,15.906-36.265,34.726v152.324c-7.344-8.531-17.906-13.375-29.312-13.375
	c-8.5,0-16.578,2.719-23.343,7.844c-8.25,6.219-13.546,15.266-14.921,25.468c-1.375,10.188,1.312,20.28,7.578,28.468l81.81,106.747
	l4.219,13.031c2.719,10.671,12.265,18.093,23.375,18.093h132.339l0.109-0.031c9.937-0.562,18.687-7.297,21.687-16.812
	c0.109-0.312,0.234-0.719,0.344-1.188C435.062,357.489,431.765,300.459,431.234,293.929z M381.032,488.423
	c-0.016,0.094-0.047,0.188-0.078,0.281c-0.266,0.891-1.125,1.828-2.422,1.938c-0.172,0-0.359-0.016-0.562-0.016h-3.5l-0.031,0.016
	H247.161c-1.469,0-2.469-1.047-2.703-2.094l-0.109-0.438l-5.625-17.312l-84.044-109.67c-2.781-3.624-3.968-8.108-3.359-12.608
	c0.609-4.531,2.968-8.562,6.64-11.343c3.047-2.281,6.672-3.5,10.484-3.5c5.484,0,10.515,2.469,13.812,6.749l36.843,48.093V173.385
	c0-7.007,7.109-13.39,14.921-13.39c7.875,0,15.328,6.508,15.328,13.39v91.248v44.514h0.016c0,0.062-0.016,0.125-0.016,0.188
	c0,5.875,4.781,10.656,10.67,10.656c5.891,0,10.656-4.781,10.656-10.656c0-0.062,0-0.125,0-0.188l0,0v-44.514
	c0-6.758,8.016-13.391,16.156-13.391c0.344,0,0.688,0.023,1,0.047l0.578,0.023c8.141,0.148,16.14,6.781,16.14,13.375v17.929v26.53
	l0,0c0,0.062,0,0.125,0,0.188c0,5.875,4.766,10.656,10.656,10.656s10.671-4.781,10.671-10.656c0-0.062-0.016-0.125-0.016-0.188
	h0.016v-26.53c0-6.75,8.062-13.382,16.297-13.382c8.062,0,16.281,6.757,16.281,13.382v11.812v14.718h0.016
	c0,0.062-0.016,0.125-0.016,0.188c0,5.875,4.781,10.656,10.672,10.656c5.89,0,10.671-4.781,10.671-10.656
	c0-0.062-0.016-0.125-0.016-0.188h0.016v-14.718c0-6.375,9.39-13.375,17.937-13.375c7.984,0,12.156,6.719,12.156,13.375v0.5
	l0.062,0.547C410,296.022,414.656,350.942,381.032,488.423z"/>
<g>
</g>
<g>
</g>
<g>
</g>
<g>
</g>
<g>
</g>
<g>
</g>
<g>
</g>
<g>
</g>
<g>
</g>
<g>
</g>
<g>
</g>
<g>
</g>
<g>
</g>
<g>
</g>
<g>
</g>
</svg>
